# xmcd
#
# Track frame offsets: 
#        150
#        12676
#        25927
#        52512
#        79218
#        89322
#        103201
#        114291
#        124959
#        136586
#        149118
#        179528
#        188368
#        199049
#        248397
#
# Disc length: 3527 seconds
#
# Revision: 0
# Processed by: cddbd v1.5.2PL0 Copyright (c) Steve Scherf et al.
# Submitted via: ExactAudioCopy v1.0b3
#
DISCID=c30dc50f
DTITLE=Various Artist - The Very Best Jazz Instrumentals - Disc 3
DYEAR=2015
DGENRE=Jazz
TTITLE0=Quincy Jones and His Orchestra - Soul Bossa Nova
TTITLE1=Duke Ellington - Take The "A" Train
TTITLE2=Eddie Harris - Moon River
TTITLE3=Jimmy Smith - Walk On The Wild Side
TTITLE4=Lawrence Welk and His Orchestra - Calcutta
TTITLE5=Count Basie - Lester Leaps In
TTITLE6=King Curtis - Something Frantic
TTITLE7=Pérez Prado - Patricia
TTITLE8=Jimmy McGriff - I've Got A Woman (Part1)
TTITLE9=Kenny Ball and His Jazzmen - March Of The Siamese Children
TTITLE10=The Dave Brubeck Quartet - Blue Rondo A La Turk
TTITLE11=David Rose and His Orchestra - The Stripper
TTITLE12=Johnny Dankworth - African Waltz
TTITLE13=Miles Davis - Straight, No Chaser
TTITLE14=Glenn Miller - Moonlight Serenade
EXTD=
EXTT0=
EXTT1=
EXTT2=
EXTT3=
EXTT4=
EXTT5=
EXTT6=
EXTT7=
EXTT8=
EXTT9=
EXTT10=
EXTT11=
EXTT12=
EXTT13=
EXTT14=
PLAYORDER=
